<svg xmlns="http://www.w3.org/2000/svg" viewBox="0 0 64 64" width="64" height="64">
  <rect width="64" height="64" rx="14" fill="#123F2D"/>
  <g transform="translate(8,11) scale(2)" fill="none" stroke="#C7A24A" stroke-width="1.3" stroke-linecap="round" stroke-linejoin="round">
    <path d="M4.6 13.4c0-3 3.3-4.6 7.4-4.6s7.4 1.6 7.4 4.6c0 2.4-3.3 3.9-7.4 3.9s-7.4-1.5-7.4-3.9Z"/>
    <path d="M9.6 9V6.4M14.4 9V6.4"/>
    <circle cx="9.6" cy="5.7" r="0.7" fill="#C7A24A" stroke="none"/>
    <circle cx="14.4" cy="5.7" r="0.7" fill="#C7A24A" stroke="none"/>
    <path d="M5.2 12.3 2.3 9.6M2.3 9.6l1.9-.2M2.3 9.6l.1 1.9"/>
    <path d="M18.8 12.3 21.7 9.6M21.7 9.6l-1.9-.2M21.7 9.6l-.1 1.9"/>
    <path d="M6.2 15.4 3.2 17M7.4 16.8 5.2 19.6M16.6 16.8 18.8 19.6M17.8 15.4 20.8 17"/>
  </g>
</svg>
